<?xml version="1.0" encoding="UTF-8"?>
<svg xmlns="http://www.w3.org/2000/svg" xmlns:xlink="http://www.w3.org/1999/xlink" width="2501" height="2501" viewBox="0 0 2501 2501">
<path fill-rule="nonzero" fill="rgb(39.988708%, 39.988708%, 39.988708%)" fill-opacity="1" d="M 1674.371094 1357.039062 C 1667.699219 1468.160156 1624.71875 1601.632812 1555.351562 1718.984375 C 1493.03125 1824.402344 1409.058594 1917.507812 1310.378906 1970.964844 C 1251.121094 2003.070312 1176.679688 2020.222656 1106.5 2019.210938 C 1054.199219 2018.460938 1003.789062 2007.636719 962.988281 1985.4375 C 919.808594 1961.949219 887.34375 1926.136719 873.921875 1876.53125 C 865.15625 1844.148438 864.855469 1806.222656 875.511719 1762.453125 C 882.148438 1735.1875 891.195312 1706.773438 900.277344 1678.246094 C 911.222656 1643.859375 922.230469 1609.292969 928.714844 1576.324219 C 936.574219 1536.390625 937.589844 1499.859375 933.566406 1465.941406 C 929.519531 1431.828125 920.4375 1400.289062 908.121094 1370.5 C 830.839844 1183.609375 867.035156 1038.210938 956.28125 944.878906 C 1015.019531 883.441406 1096.648438 845.261719 1183.851562 833.160156 C 1270.578125 821.128906 1363.121094 834.808594 1444.28125 877.019531 C 1583.691406 949.519531 1689.488281 1105.011719 1674.371094 1357.039062 Z M 1507.648438 1690.800781 C 1572.671875 1580.796875 1612.910156 1456.539062 1619.078125 1353.789062 C 1632.640625 1127.660156 1540.421875 989.539062 1418.691406 926.238281 C 1347.921875 889.429688 1267.160156 877.511719 1191.441406 888.019531 C 1116.191406 898.449219 1046.199219 930.941406 996.390625 983.039062 C 921.296875 1061.578125 891.820312 1186.300781 959.292969 1349.46875 C 973.511719 1383.851562 983.988281 1420.210938 988.640625 1459.429688 C 993.3125 1498.820312 992.171875 1541.042969 983.136719 1586.949219 C 976.328125 1621.542969 964.617188 1658.335938 952.964844 1694.941406 C 944.277344 1722.222656 935.628906 1749.394531 929.28125 1775.464844 C 920.980469 1809.554688 921.007812 1838.332031 927.472656 1862.222656 C 936.566406 1895.8125 959.179688 1920.410156 989.441406 1936.871094 C 1022.070312 1954.621094 1063.480469 1963.296875 1107.148438 1963.921875 C 1168.238281 1964.800781 1232.859375 1949.960938 1284.148438 1922.179688 C 1373.28125 1873.894531 1450.019531 1788.289062 1507.648438 1690.800781 "/>
<path fill-rule="nonzero" fill="rgb(39.988708%, 39.988708%, 39.988708%)" fill-opacity="1" d="M 906.65625 555.25 C 928.273438 580.179688 940.761719 612.78125 954.1875 647.839844 C 986.886719 733.21875 1026.449219 836.449219 1260.429688 828.191406 C 1260.140625 772.039062 1246.628906 719.679688 1222.988281 675.179688 C 1201.898438 635.46875 1172.851562 602.140625 1138.078125 578.171875 C 1103.628906 554.421875 1063.378906 539.710938 1019.511719 536.941406 C 984.054688 534.710938 946.070312 540.300781 906.65625 555.25 Z M 902.371094 667.570312 C 886.550781 626.261719 872.378906 589.261719 842.976562 574.578125 C 837.234375 572.199219 832.257812 567.878906 829.117188 561.96875 C 821.933594 548.441406 827.078125 531.640625 840.609375 524.460938 C 903.8125 490.890625 965.726562 478.039062 1022.980469 481.648438 C 1077.160156 485.070312 1126.910156 503.261719 1169.511719 532.628906 C 1211.78125 561.78125 1246.839844 601.800781 1271.988281 649.160156 C 1303.621094 708.699219 1319.761719 780.039062 1315.019531 856.019531 C 1314.308594 869.890625 1303.289062 881.328125 1289.089844 882.21875 C 992.011719 901.640625 942.808594 773.171875 902.371094 667.570312 "/>
<path fill-rule="nonzero" fill="rgb(39.988708%, 39.988708%, 39.988708%)" fill-opacity="1" d="M 1321.261719 858.761719 C 1321.441406 874.03125 1309.210938 886.550781 1293.941406 886.730469 C 1278.679688 886.910156 1266.148438 874.679688 1265.96875 859.410156 C 1265.25 802.289062 1269.808594 746.820312 1285.300781 694.800781 C 1301.191406 641.460938 1328.371094 591.949219 1372.691406 548.269531 C 1383.589844 537.550781 1401.109375 537.699219 1411.828125 548.601562 C 1422.539062 559.488281 1422.398438 577.019531 1411.5 587.730469 C 1374.550781 624.148438 1351.800781 665.699219 1338.421875 710.628906 C 1324.648438 756.871094 1320.609375 806.910156 1321.261719 858.761719 "/>
</svg>
